<?xml version="1.0" encoding="UTF-8" standalone="no"?>
<!-- Created with Inkscape (http://www.inkscape.org/) -->

<svg
   width="40mm"
   height="40mm"
   viewBox="0 0 40 40"
   version="1.1"
   id="svg5"
   xml:space="preserve"
   inkscape:export-filename="bitmap.svg"
   inkscape:export-xdpi="96"
   inkscape:export-ydpi="96"
   inkscape:version="1.2.2 (b0a8486541, 2022-12-01)"
   sodipodi:docname="icon.svg"
   xmlns:inkscape="http://www.inkscape.org/namespaces/inkscape"
   xmlns:sodipodi="http://sodipodi.sourceforge.net/DTD/sodipodi-0.dtd"
   xmlns="http://www.w3.org/2000/svg"
   xmlns:svg="http://www.w3.org/2000/svg"><sodipodi:namedview
     id="namedview7"
     pagecolor="#ffffff"
     bordercolor="#000000"
     borderopacity="0.25"
     inkscape:showpageshadow="2"
     inkscape:pageopacity="0.0"
     inkscape:pagecheckerboard="0"
     inkscape:deskcolor="#d1d1d1"
     inkscape:document-units="mm"
     showgrid="false"
     inkscape:zoom="3.8752124"
     inkscape:cx="58.577435"
     inkscape:cy="74.318508"
     inkscape:window-width="1920"
     inkscape:window-height="1053"
     inkscape:window-x="0"
     inkscape:window-y="0"
     inkscape:window-maximized="1"
     inkscape:current-layer="layer1" /><defs
     id="defs2" /><g
     inkscape:label="Layer 1"
     inkscape:groupmode="layer"
     id="layer1"><path
       style="fill:#000000;stroke-width:0.131262"
       d="m 24.012321,35.156565 c 3.703791,-0.607385 6.40794,-1.547581 8.200538,-2.851214 0.976607,-0.71022 1.209094,-1.020486 1.415808,-1.889469 0.17551,-0.737801 -0.01924,-1.360297 -0.664709,-2.124543 -0.396322,-0.469262 -1.599711,-1.367292 -1.686054,-1.258218 -0.01916,0.02421 -0.115238,0.233224 -0.213472,0.464465 -0.703642,1.656246 -4.104492,3.012546 -8.678664,3.46116 -2.205796,0.216333 -5.473627,0.01424 -7.522809,-0.465302 C 11.86027,29.79081 9.9040707,28.635696 9.4513057,27.297928 9.3983767,27.141544 9.2829399,27.01385 9.194775,27.014165 c -0.3101079,0.0012 -1.8338001,1.404167 -2.1136726,1.946333 -0.9949722,1.927445 0.4989426,3.542214 4.7160916,5.09761 1.411585,0.52063 1.601502,0.564703 4.692318,1.088958 2.640654,0.447899 4.832597,0.450668 7.522809,0.0095 z m -3.853439,-8.337485 0.9355,-2.598573 0.45162,1.809659 c 0.248391,0.995309 0.532079,2.141644 0.630417,2.547409 0.09835,0.405763 0.212582,0.769436 0.253876,0.808159 0.253655,0.237873 4.613065,-0.760188 5.512862,-1.262136 1.661009,-0.92659 2.391899,-3.223288 1.559423,-4.900224 -0.366991,-0.739263 -0.533834,-0.764512 -0.666591,-0.100885 -0.0477,0.238429 -0.236835,0.640948 -0.420305,0.894481 -0.183468,0.253535 -0.370907,0.600439 -0.416528,0.770902 -0.09376,0.350322 -0.458189,0.504951 -0.888337,0.376922 -0.274893,-0.08181 -0.285684,-0.140761 -0.205178,-1.120794 0.04674,-0.56894 0.302822,-1.921041 0.569078,-3.004669 C 28.110093,18.453438 28.19215,17.1675 27.825457,15.542727 27.295341,13.193836 26.203433,11.264707 24.322141,9.3532344 22.202007,7.1990905 20.098124,5.9792851 17.41377,5.3478533 14.32396,4.621046 10.493496,5.1934068 8.0950177,6.7402882 6.4973821,7.7706725 5.7373768,8.6048289 6.5760763,8.4074278 7.290795,8.2392057 8.8200781,8.078807 9.731816,8.0764369 c 1.653837,-0.00433 3.781525,0.7755563 4.603304,1.6872376 0.703112,0.7800325 0.91013,1.4212275 0.826674,2.5604285 -0.100476,1.371506 -0.43669,2.224803 -2.03158,5.156094 -0.741747,1.363276 -1.438017,2.707483 -1.547268,2.98713 -0.740061,1.894289 -1.157509,4.602489 -0.865789,5.61679 0.0842,0.292772 0.395116,0.81944 0.69092,1.170372 0.639382,0.758548 1.873267,1.366537 3.658202,1.802552 1.020283,0.24923 3.61605,0.508703 4.010084,0.400848 0.08086,-0.02214 0.567996,-1.2096 1.082519,-2.638815 z"
       id="path5365"
       sodipodi:nodetypes="csssscscscsssccccsssssssssssssssscsssssssssc" /></g><g
     inkscape:groupmode="layer"
     id="layer2"
     inkscape:label="foreground" /></svg>
